<svg width="66" height="66" viewBox="0 0 66 66" fill="none" xmlns="http://www.w3.org/2000/svg">
<path d="M55.1698 51.4189C58.1318 47.8551 60.1919 43.6303 61.1758 39.102C62.1598 34.5737 62.0386 29.8749 60.8225 25.4034C59.6064 20.9318 57.3312 16.8188 54.1894 13.4125C51.0476 10.0062 47.1316 7.40668 42.7727 5.83388C38.4137 4.26108 33.7401 3.76126 29.1472 4.37671C24.5542 4.99216 20.1771 6.70477 16.386 9.36967C12.5949 12.0346 9.50142 15.5733 7.36724 19.6866C5.23305 23.7999 4.12095 28.3667 4.12501 33.0007C4.12657 39.7373 6.50048 46.258 10.8302 51.4189L10.7889 51.4539C10.9333 51.6272 11.0983 51.7757 11.2468 51.9469C11.4324 52.1593 11.6325 52.3594 11.8243 52.5656C12.4018 53.1926 12.9958 53.7949 13.6187 54.36C13.8084 54.5332 14.0044 54.6941 14.1962 54.8591C14.8562 55.4284 15.5348 55.9687 16.2381 56.472C16.3288 56.5339 16.4113 56.6143 16.5021 56.6782V56.6535C21.3327 60.0528 27.0953 61.8772 33.0021 61.8772C38.9089 61.8772 44.6715 60.0528 49.5021 56.6535V56.6782C49.5928 56.6143 49.6733 56.5339 49.7661 56.472C50.4673 55.9667 51.1479 55.4284 51.8079 54.8591C51.9998 54.6941 52.1957 54.5312 52.3854 54.36C53.0083 53.7928 53.6023 53.1926 54.1798 52.5656C54.3716 52.3594 54.5696 52.1593 54.7573 51.9469C54.9038 51.7757 55.0708 51.6272 55.2152 51.4519L55.1698 51.4189ZM33 16.5007C34.8357 16.5007 36.6301 17.0451 38.1564 18.0649C39.6827 19.0848 40.8723 20.5343 41.5748 22.2302C42.2772 23.9261 42.461 25.7923 42.1029 27.5927C41.7448 29.3931 40.8609 31.0468 39.5628 32.3448C38.2648 33.6428 36.6111 34.5268 34.8107 34.8849C33.0103 35.243 31.1442 35.0592 29.4482 34.3568C27.7523 33.6543 26.3028 32.4647 25.2829 30.9384C24.2631 29.4121 23.7188 27.6177 23.7188 25.782C23.7188 23.3205 24.6966 20.9597 26.4372 19.2192C28.1777 17.4786 30.5385 16.5007 33 16.5007ZM16.5144 51.4189C16.5502 48.7107 17.6508 46.1256 19.578 44.2227C21.5052 42.3198 24.1041 41.2521 26.8125 41.2507H39.1875C41.8959 41.2521 44.4948 42.3198 46.422 44.2227C48.3492 46.1256 49.4498 48.7107 49.4856 51.4189C44.9622 55.4951 39.089 57.7509 33 57.7509C26.911 57.7509 21.0378 55.4951 16.5144 51.4189Z" fill="#0E387A"/>
<path d="M50.9348 8.07031C49.4767 8.07031 48.2446 9.30243 48.2446 10.7605C48.2446 12.2186 49.4767 13.4507 50.9348 13.4507C52.3929 13.4507 53.6251 12.2186 53.6251 10.7605C53.6251 9.30243 52.3929 8.07031 50.9348 8.07031Z" fill="#F4BB49"/>
<path d="M58.1088 4.48319H55.7898L53.3623 2.05571C53.2792 1.97228 53.1804 1.90611 53.0716 1.86102C52.9628 1.81593 52.8461 1.7928 52.7283 1.79297H49.1414C49.0236 1.7928 48.9069 1.81593 48.7981 1.86102C48.6893 1.90611 48.5905 1.97228 48.5074 2.05571L46.0799 4.48319H43.7609C42.7718 4.48319 41.9675 5.28756 41.9675 6.27667V16.1408C41.9675 17.1299 42.7718 17.9343 43.7609 17.9343H58.1088C59.0979 17.9343 59.9023 17.1299 59.9023 16.1408V6.27667C59.9023 5.28756 59.0979 4.48319 58.1088 4.48319ZM50.9349 15.2441C48.5047 15.2441 46.4512 13.1905 46.4512 10.7604C46.4512 8.3302 48.5047 6.27667 50.9349 6.27667C53.365 6.27667 55.4186 8.3302 55.4186 10.7604C55.4186 13.1905 53.365 15.2441 50.9349 15.2441Z" fill="#F4BB49"/>
</svg>
