<svg width="21" height="21" viewBox="0 0 21 21" fill="none" xmlns="http://www.w3.org/2000/svg">
<path d="M14.5498 1.73047H12.298C9.52667 1.73047 7.79456 3.46258 7.79456 6.23395V9.74148H13.2074C13.5625 9.74148 13.8569 10.0359 13.8569 10.391C13.8569 10.7461 13.5625 11.0406 13.2074 11.0406H7.79456V14.5481C7.79456 17.3195 9.52667 19.0516 12.298 19.0516H14.5411C17.3125 19.0516 19.0446 17.3195 19.0446 14.5481V6.23395C19.0533 3.46258 17.3212 1.73047 14.5498 1.73047Z" fill="#292D32"/>
<path d="M3.94919 9.74287L5.74192 7.95014C5.87183 7.82023 5.93245 7.65568 5.93245 7.49113C5.93245 7.32658 5.87183 7.15336 5.74192 7.03212C5.49077 6.78096 5.07506 6.78096 4.8239 7.03212L1.92262 9.9334C1.67146 10.1846 1.67146 10.6003 1.92262 10.8514L4.8239 13.7527C5.07506 14.0039 5.49077 14.0039 5.74192 13.7527C5.99308 13.5015 5.99308 13.0858 5.74192 12.8347L3.94919 11.042H7.79447V9.74287H3.94919Z" fill="#292D32"/>
</svg>
